<?xml version="1.0" standalone="no"?>
<!DOCTYPE svg PUBLIC "-//W3C//DTD SVG 20010904//EN"
 "http://www.w3.org/TR/2001/REC-SVG-20010904/DTD/svg10.dtd">
<svg version="1.0" xmlns="http://www.w3.org/2000/svg"
 width="591.000000pt" height="591.000000pt" viewBox="0 0 591.000000 591.000000"
 preserveAspectRatio="xMidYMid meet">
<metadata>
Created by potrace 1.14, written by Peter Selinger 2001-2017
</metadata>
<g transform="translate(0.000000,591.000000) scale(0.100000,-0.100000)"
fill="#000000" stroke="none">
<path d="M3505 5063 c-71 -76 -246 -403 -261 -488 -3 -22 -8 -43 -10 -47 -3
-4 -43 23 -90 58 -47 36 -120 85 -162 110 -43 25 -89 54 -103 65 -14 12 -41
21 -60 22 -33 2 -34 1 -37 -38 -5 -63 15 -184 68 -397 27 -108 46 -206 43
-216 -4 -17 -11 -19 -46 -15 -58 7 -211 59 -276 94 -62 33 -74 35 -91 14 -18
-22 69 -284 131 -396 72 -130 131 -260 125 -275 -7 -18 -72 -50 -118 -58 -59
-11 -53 -26 75 -171 20 -23 37 -52 37 -63 0 -29 38 -129 66 -173 12 -19 37
-52 56 -71 18 -20 59 -87 91 -149 51 -101 56 -114 42 -129 -30 -33 -9 -213 35
-299 24 -49 48 -68 115 -96 36 -14 64 -34 76 -51 31 -48 169 -183 213 -209 23
-14 75 -35 116 -49 l74 -24 -74 -6 c-253 -19 -560 -36 -655 -37 -202 -1 -198
-1 -190 19 4 9 16 73 27 142 17 104 20 172 20 400 0 259 -1 281 -26 388 -14
61 -30 121 -36 131 -5 11 -10 29 -10 40 0 10 -4 21 -9 23 -5 2 -20 26 -34 53
-25 50 -116 162 -145 179 -40 23 -66 68 -64 110 4 54 -23 203 -47 266 -25 64
-81 149 -125 188 -46 41 -187 106 -292 137 -103 30 -251 34 -435 11 -115 -15
-285 -51 -304 -65 -5 -5 -50 -25 -99 -46 -50 -21 -117 -54 -150 -73 -89 -52
-217 -181 -294 -297 -37 -55 -70 -102 -73 -105 -14 -11 -69 -127 -75 -158 -4
-17 -10 -32 -13 -32 -20 0 -32 -143 -33 -370 0 -135 -1 -288 -1 -340 -1 -88 3
-106 47 -240 68 -203 114 -292 197 -379 70 -74 124 -105 249 -146 66 -21 66
-21 53 -37 -6 -7 -23 -45 -38 -85 -27 -69 -27 -77 -22 -200 5 -129 22 -208 64
-304 17 -39 18 -55 10 -139 -5 -52 -14 -106 -20 -119 -12 -25 -17 -503 -7
-738 l5 -123 812 0 813 0 -7 259 -6 259 29 -2 c16 -2 40 -8 53 -15 14 -8 42
-11 65 -9 l41 5 1 -46 c1 -57 18 -91 46 -91 18 0 20 -4 15 -40 -6 -49 -21 -69
-66 -87 -64 -27 -89 -69 -98 -170 l-6 -63 281 0 281 0 -6 37 c-7 44 -38 128
-59 161 -8 12 -37 36 -64 53 -44 27 -50 35 -50 64 0 27 4 34 27 40 17 4 29 2
31 -4 2 -6 27 -11 57 -11 l52 0 7 -51 c4 -28 16 -75 27 -105 17 -44 27 -57 54
-68 47 -20 478 -56 662 -56 83 0 158 -3 167 -6 9 -3 16 -17 16 -30 l0 -24 709
0 709 0 -30 137 c-16 76 -44 215 -63 308 -51 259 -80 382 -139 595 -30 107
-66 247 -81 310 -15 63 -37 138 -49 165 -13 28 -36 82 -51 120 -82 212 -127
292 -210 382 -60 65 -92 90 -149 119 -69 33 -78 35 -152 32 -43 -2 -87 -8 -96
-12 -13 -6 -18 -4 -18 8 0 9 -4 16 -10 16 -21 0 -105 62 -112 83 -16 57 -10
58 58 12 36 -25 70 -45 76 -45 12 0 9 28 -22 170 -27 127 -28 121 28 104 95
-29 215 -55 228 -50 8 3 14 17 14 31 0 34 -84 245 -126 318 -19 32 -32 63 -29
67 3 5 25 15 48 21 23 6 92 36 152 66 173 87 265 154 265 192 0 22 -43 66
-108 109 -22 15 -56 40 -75 55 -47 38 -244 122 -344 147 l-42 11 66 82 c75 93
123 166 208 316 68 119 155 315 155 349 0 33 -38 28 -100 -13 -29 -19 -60 -35
-70 -35 -10 0 -37 -7 -61 -16 -60 -21 -306 -74 -346 -74 -31 0 -32 1 -22 28
26 67 50 294 56 525 6 219 5 237 -11 237 -10 0 -62 -29 -116 -65 -55 -35 -132
-81 -171 -101 -115 -57 -190 -111 -253 -182 -11 -12 -30 -29 -43 -37 -22 -15
-23 -14 -52 43 -16 31 -46 102 -66 157 -20 55 -60 143 -88 195 -27 52 -57 107
-64 123 -10 18 -22 27 -38 27 -13 0 -36 -12 -50 -27z m263 -478 c-3 -3 -9 2
-12 12 -6 14 -5 15 5 6 7 -7 10 -15 7 -18z m-501 -117 c-3 -7 -5 -2 -5 12 0
14 2 19 5 13 2 -7 2 -19 0 -25z m-400 -40 c-3 -8 -6 -5 -6 6 -1 11 2 17 5 13
3 -3 4 -12 1 -19z m1710 -304 c-3 -3 -12 -4 -19 -1 -8 3 -5 6 6 6 11 1 17 -2
13 -5z m-40 -10 c-3 -3 -12 -4 -19 -1 -8 3 -5 6 6 6 11 1 17 -2 13 -5z m-390
-2250 c-3 -3 -12 -4 -19 -1 -8 3 -5 6 6 6 11 1 17 -2 13 -5z m46 -1 c-7 -2
-19 -2 -25 0 -7 3 -2 5 12 5 14 0 19 -2 13 -5z m-463 -286 c0 -26 -28 -142
-51 -214 -16 -50 -29 -98 -29 -105 0 -14 96 -67 176 -97 l48 -19 29 -100 30
-101 -32 -60 c-36 -71 -38 -85 -11 -113 11 -12 18 -23 17 -25 -7 -6 -213 17
-345 39 -103 17 -142 19 -172 12 -25 -7 -57 -7 -98 0 l-61 10 -11 45 c-15 61
-56 151 -81 178 -20 20 -20 22 -4 47 36 54 -6 135 -80 156 -64 18 -198 9 -225
-15 -22 -20 -28 -101 -10 -136 13 -24 -19 -72 -60 -89 -43 -18 -62 -62 -70
-166 -4 -52 -10 -97 -13 -101 -4 -3 -7 5 -7 19 0 14 -7 122 -15 241 -14 189
-22 262 -51 465 l-7 42 89 0 c49 0 114 7 144 15 51 13 108 19 475 45 72 5 146
14 165 19 32 8 260 15 260 8z m1131 -840 c-10 -9 -11 -8 -5 6 3 10 9 15 12 12
3 -3 0 -11 -7 -18z"/>
</g>
</svg>
